<?xml version="1.0" encoding="UTF-8" standalone="no"?>
<!-- Created with Inkscape (http://www.inkscape.org/) -->

<svg
   width="2047.9999"
   height="2047.9999"
   viewBox="0 0 541.86663 541.86663"
   version="1.1"
   id="svg1"
   xml:space="preserve"
   sodipodi:docname="townesdev_master.svg"
   inkscape:version="1.4.2 (f4327f4, 2025-05-13)"
   inkscape:export-filename="TownesDev_BrandKit\01_Logos\townesdev_logo_ligh.svg"
   inkscape:export-xdpi="96"
   inkscape:export-ydpi="96"
   xmlns:inkscape="http://www.inkscape.org/namespaces/inkscape"
   xmlns:sodipodi="http://sodipodi.sourceforge.net/DTD/sodipodi-0.dtd"
   xmlns="http://www.w3.org/2000/svg"
   xmlns:svg="http://www.w3.org/2000/svg"><sodipodi:namedview
     id="namedview1"
     pagecolor="#f5f5f7"
     bordercolor="#ffffff"
     borderopacity="1"
     inkscape:showpageshadow="0"
     inkscape:pageopacity="0"
     inkscape:pagecheckerboard="false"
     inkscape:deskcolor="#505050"
     inkscape:document-units="px"
     inkscape:zoom="0.35355339"
     inkscape:cx="377.59502"
     inkscape:cy="900.85404"
     inkscape:window-width="1578"
     inkscape:window-height="1211"
     inkscape:window-x="966"
     inkscape:window-y="415"
     inkscape:window-maximized="0"
     inkscape:current-layer="layer1"
     showguides="true"><inkscape:page
       x="0"
       y="0"
       width="541.86664"
       height="541.86664"
       id="page2"
       margin="0"
       bleed="0" /></sodipodi:namedview><defs
     id="defs1" /><g
     inkscape:label="Layer 1"
     inkscape:groupmode="layer"
     id="layer1"><g
       id="g93"
       inkscape:export-filename="TownesDev_BrandKit\01_Logos\townesdev_logo_dark.svg"
       inkscape:export-xdpi="96"
       inkscape:export-ydpi="96"
       style="fill:#f8fbfb;fill-opacity:1"><g
         id="g92"
         style="fill:#f8fbfb;fill-opacity:1"><path
           id="path19"
           style="fill:#f8fbfb;fill-opacity:1;stroke-width:1.2245"
           d="M 270.89974,4.9894154e-7 C 259.38167,4.9894154e-7 259.50853,7.2298235 259.50853,7.2298235 v 7.6363945 l -58.54408,37.474026 v 11.596881 c 0,2.969625 3.5348,3.675909 3.5348,3.675909 h 14.56489 v 53.736886 h -14.56489 c -5.09084,0 -6.50516,3.96054 -6.50516,3.96054 0,0 -9e-4,8.76739 0.28231,12.16127 0.28277,3.39388 12.30242,7.21071 12.30242,7.21071 l -20.50321,179.45392 h -21.21114 c 0,0 -0.14162,4.38201 0,13.99804 0.14162,9.61604 -21.49574,15.2728 -21.49574,15.2728 v 8.96848 h 123.5311 123.53107 v -8.96848 c 0,0 -21.63712,-5.65676 -21.49574,-15.2728 0.14162,-9.61603 0,-13.99804 0,-13.99804 H 351.7241 L 331.21844,144.68244 c 0,0 12.01955,-3.81683 12.30237,-7.21071 0.28278,-3.39388 0.28463,-12.16127 0.28463,-12.16127 0,0 -1.41433,-3.96054 -6.50516,-3.96054 H 322.73307 V 67.613034 h 14.56721 c 0,0 3.53479,-0.706284 3.53479,-3.675909 V 52.340244 L 282.29099,14.866218 V 7.2298235 c 0,0 0.12681,-7.22982300105846 -11.39116,-7.22982300105846 z M 240.39003,71.795944 h 61.01938 v 18.255093 h -20.56064 v 31.298883 h -19.8981 V 90.051037 h -20.56064 z m 30.63166,131.021546 c 11.00773,0 14.38786,9.43078 14.38786,10.99662 v 36.58193 h -29.08188 v -36.58193 c 0,-2.50024 3.69498,-10.99662 14.69402,-10.99662 z"
           sodipodi:nodetypes="scccscccscccccscccccccccscscccscccsscccccccccssccss" /><g
           id="g91"
           style="fill:#f8fbfb;fill-opacity:1"><path
             style="fill:#f8fbfb;fill-opacity:1;stroke-width:1.2245"
             d="m 188.87989,97.654793 v 11.688987 l -82.63002,22.14065 v -14.78087 z"
             id="path12"
             sodipodi:nodetypes="ccccc" /><path
             style="fill:#f8fbfb;fill-opacity:1;stroke-width:1.2245"
             d="M 188.87989,87.542402 V 75.853424 L 106.24987,53.71277 v 14.780876 z"
             id="path13"
             sodipodi:nodetypes="ccccc" /><path
             style="fill:#f8fbfb;fill-opacity:1;stroke-width:1.2245"
             d="m 352.98671,97.654793 v 11.688987 l 82.63002,22.14065 v -14.78087 z"
             id="path14"
             sodipodi:nodetypes="ccccc" /><path
             style="fill:#f8fbfb;fill-opacity:1;stroke-width:1.2245"
             d="M 352.98671,87.542402 V 75.853424 L 435.61673,53.71277 v 14.780876 z"
             id="path15"
             sodipodi:nodetypes="ccccc" /></g></g><path
         style="font-size:7.05556px;line-height:0;font-family:Sans;-inkscape-font-specification:'Sans, @wght=400';font-variation-settings:'wght' 400;letter-spacing:-0.529167px;word-spacing:-0.79375px;fill:#f8fbfb;fill-opacity:1;stroke-width:1.11686;stroke-linecap:square;stroke-linejoin:round"
         d="m 56.404798,539.65043 q -0.876919,0.38274 -1.594403,0.71749 -0.701537,0.3346 -1.849507,0.70151 -0.972586,0.30314 -2.120556,0.51019 -1.132025,0.22308 -2.50321,0.22308 -2.582934,0 -4.70349,-0.71744 -2.104613,-0.73345 -3.667129,-2.28 -1.530625,-1.51471 -2.391601,-3.84251 -0.860977,-2.34378 -0.860977,-5.43693 0,-2.93371 0.829089,-5.2456 0.829089,-2.31189 2.391602,-3.90629 1.514686,-1.54655 3.651185,-2.3597 2.152444,-0.81314 4.767264,-0.81314 1.913285,0 3.810622,0.46234 1.913285,0.46234 4.241111,1.62629 v 3.74681 h -0.239176 q -1.961116,-1.64221 -3.890345,-2.39158 -1.929228,-0.74937 -4.129502,-0.74937 -1.801675,0 -3.252582,0.58994 -1.434964,0.57396 -2.56699,1.80169 -1.100139,1.19578 -1.721957,3.02932 -0.60587,1.81766 -0.60587,4.20924 0,2.50321 0.669649,4.30491 0.685592,1.80165 1.753844,2.93367 1.116079,1.17987 2.598873,1.75383 1.498742,0.55805 3.156921,0.55805 2.279996,0 4.272999,-0.78125 1.993002,-0.78126 3.730903,-2.34378 h 0.223211 z m 19.7132,-19.29228 q 1.450905,1.5944 2.216224,3.90629 0.781256,2.31189 0.781256,5.24555 0,2.93371 -0.797203,5.26157 -0.781257,2.31189 -2.200277,3.85844 -1.466851,1.61037 -3.475797,2.42351 -1.993007,0.81315 -4.559993,0.81315 -2.503215,0 -4.559992,-0.82912 -2.040839,-0.82906 -3.475802,-2.40754 -1.434959,-1.57844 -2.216217,-3.87441 -0.765316,-2.29592 -0.765316,-5.2456 0,-2.90177 0.765316,-5.19774 0.765314,-2.31189 2.232165,-3.9541 1.403072,-1.56252 3.475797,-2.39163 2.088669,-0.82907 4.544049,-0.82907 2.551042,0 4.575936,0.84503 2.040834,0.82907 3.459854,2.37567 z m -0.286984,9.15184 q 0,-4.62373 -2.072725,-7.12694 -2.072722,-2.51918 -5.660128,-2.51918 -3.619294,0 -5.692019,2.51918 -2.056781,2.50321 -2.056781,7.12694 0,4.67163 2.104611,7.15888 2.104613,2.47132 5.644189,2.47132 3.539572,0 5.62824,-2.47132 2.104613,-2.48725 2.104613,-7.15888 z m 25.899486,0.0138 q 0,3.23661 -1.41902,5.86742 -1.403082,2.63076 -3.746852,4.08165 -1.626292,1.00447 -3.635239,1.45089 -1.993,0.4466 -5.261531,0.4466 H 81.672911 V 517.6297 h 5.931177 q 3.475797,0 5.516628,0.51019 2.056779,0.49427 3.475797,1.3712 2.423496,1.51466 3.778737,4.03384 1.35525,2.51913 1.35525,5.979 z m -3.30042,-0.0477 q 0,-2.7902 -0.972584,-4.70347 -0.972585,-1.91328 -2.901815,-3.01341 -1.403071,-0.79722 -2.981531,-1.10013 -1.57846,-0.31887 -3.778735,-0.31887 h -2.965593 v 18.3197 h 2.965593 q 2.279992,0 3.970062,-0.33506 1.706009,-0.33461 3.125027,-1.24361 1.769788,-1.13206 2.646708,-2.98156 0.892868,-1.84951 0.892868,-4.62378 z m 21.59459,11.89428 H 104.38358 V 517.6297 h 15.64109 v 2.80612 H 107.5405 v 6.50517 h 12.48417 v 2.80616 H 107.5405 v 8.81705 h 12.48417 z m 7.21309,0 h -3.81062 v -4.54409 h 3.81062 z m 27.38227,-6.77623 q 0,1.38711 -0.6537,2.74239 -0.63777,1.35522 -1.80168,2.29592 -1.27552,1.02043 -2.98154,1.5944 -1.69006,0.57397 -4.08167,0.57397 -2.56698,0 -4.62376,-0.47831 -2.04084,-0.47831 -4.1614,-1.419 v -3.95415 h 0.22321 q 1.80168,1.49874 4.16139,2.31189 2.35972,0.81315 4.43244,0.81315 2.9337,0 4.56,-1.10013 1.64223,-1.10013 1.64223,-2.93371 0,-1.57844 -0.78125,-2.32781 -0.76532,-0.74937 -2.34378,-1.1639 -1.1958,-0.31888 -2.59888,-0.52617 -1.38713,-0.20733 -2.94964,-0.52616 -3.15692,-0.66963 -4.68754,-2.28 -1.51469,-1.62629 -1.51469,-4.22516 0,-2.98152 2.51916,-4.87888 2.51916,-1.91327 6.39355,-1.91327 2.50322,0 4.59188,0.47831 2.08867,0.47835 3.69902,1.17987 v 3.73089 h -0.2232 q -1.35525,-1.14794 -3.57147,-1.89731 -2.20028,-0.76534 -4.51216,-0.76534 -2.5351,0 -4.08167,1.05232 -1.53064,1.05228 -1.53064,2.71045 0,1.48283 0.76532,2.32786 0.76532,0.84504 2.69454,1.29145 1.02042,0.22307 2.90182,0.54208 1.8814,0.31888 3.1888,0.65371 2.64671,0.70157 3.98601,2.12057 1.3393,1.41905 1.3393,3.97007 z m 19.42621,-16.96444 -8.35468,13.32921 v 10.41146 h -3.15692 V 531.2938 l -8.38656,-13.66405 h 3.49175 l 6.48922,10.6187 6.553,-10.6187 z m 18.08691,16.96444 q 0,1.38711 -0.6537,2.74239 -0.63776,1.35522 -1.80168,2.29592 -1.27553,1.02043 -2.98153,1.5944 -1.69008,0.57397 -4.08168,0.57397 -2.56698,0 -4.62377,-0.47831 -2.04083,-0.47831 -4.16139,-1.419 v -3.95415 h 0.22322 q 1.80167,1.49874 4.16138,2.31189 2.35972,0.81315 4.43245,0.81315 2.93369,0 4.55998,-1.10013 1.64224,-1.10013 1.64224,-2.93371 0,-1.57844 -0.78126,-2.32781 -0.76531,-0.74937 -2.34377,-1.1639 -1.1958,-0.31888 -2.59888,-0.52617 -1.38713,-0.20733 -2.94964,-0.52616 -3.15692,-0.66963 -4.68755,-2.28 -1.51468,-1.62629 -1.51468,-4.22516 0,-2.98152 2.51916,-4.87888 2.51915,-1.91327 6.39356,-1.91327 2.5032,0 4.59187,0.47831 2.08868,0.47835 3.69902,1.17987 v 3.73089 h -0.22321 q -1.35524,-1.14794 -3.57146,-1.89731 -2.20028,-0.76534 -4.51216,-0.76534 -2.53511,0 -4.08167,1.05232 -1.53063,1.05228 -1.53063,2.71045 0,1.48283 0.76532,2.32786 0.76531,0.84504 2.69454,1.29145 1.02041,0.22307 2.9018,0.54208 1.8814,0.31888 3.18882,0.65371 2.6467,0.70157 3.986,2.12057 1.3393,1.41905 1.3393,3.97007 z m 19.55375,-14.15832 h -8.48222 v 20.93455 h -3.15692 v -20.93455 h -8.48223 v -2.80612 h 20.12137 z m 16.38089,20.93462 H 212.4267 v -23.74066 h 15.64109 v 2.80611 h -12.48417 v 6.50517 h 12.48417 v 2.80616 h -12.48417 v 8.81705 h 12.48417 z m 23.69922,0 h -3.15692 V 520.9143 l -6.60083,13.91914 h -1.8814 l -6.55299,-13.91914 v 20.45619 h -2.94965 v -23.74066 h 4.3049 l 6.32977,13.21757 6.12251,-13.21757 h 4.38461 z m 21.18005,-6.77623 q 0,1.38712 -0.6537,2.74239 -0.63776,1.35522 -1.80168,2.29592 -1.27553,1.02043 -2.98154,1.5944 -1.69007,0.57397 -4.08167,0.57397 -2.56698,0 -4.62377,-0.47831 -2.04083,-0.47831 -4.16139,-1.419 v -3.95415 h 0.22321 q 1.80168,1.49875 4.16139,2.3119 2.35972,0.81314 4.43245,0.81314 2.9337,0 4.55999,-1.10013 1.64224,-1.10013 1.64224,-2.93371 0,-1.57844 -0.78126,-2.32781 -0.76531,-0.74937 -2.34377,-1.1639 -1.1958,-0.31888 -2.59888,-0.52617 -1.38714,-0.20733 -2.94964,-0.52616 -3.15692,-0.66963 -4.68755,-2.28 -1.51468,-1.62629 -1.51468,-4.22516 0,-2.98152 2.51915,-4.87888 2.51916,-1.91327 6.39356,-1.91327 2.50321,0 4.59188,0.47831 2.08867,0.47835 3.69901,1.17987 v 3.73089 h -0.22321 q -1.35524,-1.14794 -3.57146,-1.89731 -2.20028,-0.76534 -4.51216,-0.76534 -2.5351,0 -4.08167,1.05232 -1.53063,1.05228 -1.53063,2.71046 0,1.48282 0.76532,2.32785 0.76531,0.84504 2.69454,1.29146 1.02041,0.22306 2.90181,0.54207 1.8814,0.31888 3.18881,0.65371 2.6467,0.70157 3.986,2.12057 1.3393,1.41905 1.3393,3.97007 z m 6.95797,6.77623 h -3.81062 v -4.54409 h 3.81062 z m 25.29362,-20.93455 h -12.00586 v 6.69654 h 10.31579 v 2.80612 h -10.31579 v 11.43189 h -3.15692 v -23.74066 h 15.16278 z m 18.85222,-0.0796 q 1.45091,1.59441 2.21623,3.90629 0.78126,2.3119 0.78126,5.24556 0,2.93371 -0.79721,5.26157 -0.78125,2.31188 -2.20028,3.85843 -1.46685,1.61037 -3.4758,2.42351 -1.993,0.81316 -4.55999,0.81316 -2.50321,0 -4.55999,-0.82912 -2.04083,-0.82906 -3.4758,-2.40755 -1.43496,-1.57843 -2.21622,-3.87441 -0.76531,-2.29592 -0.76531,-5.24559 0,-2.90178 0.76531,-5.19774 0.76532,-2.3119 2.23217,-3.95411 1.40307,-1.56251 3.4758,-2.39163 2.08866,-0.82906 4.54404,-0.82906 2.55104,0 4.57594,0.84503 2.04084,0.82907 3.45985,2.37566 z m -0.28698,9.15185 q 0,-4.62373 -2.07273,-7.12695 -2.07273,-2.51917 -5.66013,-2.51917 -3.61929,0 -5.69202,2.51917 -2.05678,2.50322 -2.05678,7.12695 0,4.67163 2.10462,7.15888 2.10461,2.47132 5.64418,2.47132 3.53957,0 5.62825,-2.47132 2.10461,-2.48725 2.10461,-7.15888 z m 23.71515,2.32785 q 0,2.58291 -0.57399,4.51215 -0.55804,1.91328 -1.84951,3.18881 -1.22769,1.21176 -2.86992,1.7698 -1.64224,0.55806 -3.82657,0.55806 -2.23216,0 -3.89034,-0.58994 -1.65818,-0.58994 -2.79021,-1.73792 -1.29146,-1.30742 -1.86546,-3.15692 -0.55803,-1.8495 -0.55803,-4.54404 v -14.20612 h 3.15692 v 14.36556 q 0,1.92924 0.2551,3.04529 0.27106,1.1161 0.89286,2.02491 0.70154,1.03635 1.89734,1.56251 1.21174,0.52616 2.90181,0.52616 1.70601,0 2.90181,-0.51019 1.19581,-0.52616 1.91328,-1.57848 0.62183,-0.90881 0.87693,-2.07272 0.27106,-1.17987 0.27106,-2.91774 v -14.4453 h 3.15693 z m 21.69024,9.53454 h -3.90629 L 354.0065,520.13314 v 21.23744 h -2.94962 v -23.74066 h 4.89478 l 10.26795,19.38794 v -19.38794 h 2.94967 z m 23.92241,-11.84642 q 0,3.23661 -1.41901,5.86742 -1.40308,2.63075 -3.74685,4.08165 -1.62629,1.00447 -3.63523,1.45088 -1.99302,0.4466 -5.26152,0.4466 h -5.99497 v -23.74065 h 5.9312 q 3.47579,0 5.51661,0.51019 2.0568,0.49428 3.4758,1.3712 2.42351,1.51466 3.77874,4.03384 1.35523,2.51913 1.35523,5.979 z m -3.30039,-0.0477 q 0,-2.7902 -0.97258,-4.70347 -0.97259,-1.91328 -2.90183,-3.01341 -1.40308,-0.79722 -2.98152,-1.10013 -1.57848,-0.31887 -3.77874,-0.31887 h -2.9656 v 18.3197 h 2.9656 q 2.28,0 3.97007,-0.33506 1.70598,-0.33461 3.12503,-1.2436 1.76976,-1.13207 2.64668,-2.98157 0.89289,-1.8495 0.89289,-4.62378 z m 24.67177,11.89428 h -3.36417 l -2.32785,-6.61679 H 398.5031 l -2.3278,6.61679 h -3.20477 l 8.64165,-23.74066 h 4.20924 z m -6.6646,-9.32725 -4.16139,-11.6551 -4.17731,11.6551 z m 22.83824,-11.60729 h -8.48226 v 20.93454 h -3.15692 v -20.9345 h -8.48222 v -2.80613 h 20.1214 z m 9.11042,20.93454 h -9.3751 v -2.42352 h 3.10906 v -18.89366 h -3.10906 v -2.42345 h 9.3751 v 2.42348 h -3.10911 v 18.89367 h 3.10911 z m 20.62201,-21.01424 q 1.45089,1.59441 2.21618,3.90629 0.78126,2.31189 0.78126,5.24555 0,2.93372 -0.79718,5.26157 -0.78125,2.31189 -2.20026,3.85844 -1.46685,1.61037 -3.47579,2.42352 -1.99302,0.81315 -4.56,0.81315 -2.50321,0 -4.56001,-0.82912 -2.04082,-0.82907 -3.47579,-2.40755 -1.43496,-1.57844 -2.21623,-3.8744 -0.76533,-2.29592 -0.76533,-5.24561 0,-2.90177 0.76533,-5.19774 0.7653,-2.31189 2.23215,-3.9541 1.40308,-1.56251 3.47579,-2.39163 2.08868,-0.82907 4.54409,-0.82907 2.55102,0 4.57592,0.84504 2.04082,0.82907 3.45987,2.37566 z m -0.28694,9.15184 q 0,-4.62372 -2.07271,-7.12693 -2.0727,-2.51918 -5.66013,-2.51918 -3.61927,0 -5.69202,2.51918 -2.05679,2.50321 -2.05679,7.12693 0,4.67164 2.10464,7.15888 2.1046,2.47133 5.64417,2.47133 3.53957,0 5.62825,-2.47133 2.10459,-2.48724 2.10459,-7.15888 z m 23.95434,11.8624 h -3.90629 l -11.25649,-21.23745 v 21.23745 h -2.94963 V 517.6301 h 4.89479 l 10.26799,19.38795 V 517.6301 h 2.94963 z m 21.11628,-6.77623 q 0,1.38712 -0.65371,2.74239 -0.63774,1.35522 -1.80169,2.29592 -1.27548,1.02044 -2.98152,1.5944 -1.69006,0.57397 -4.08165,0.57397 -2.56698,0 -4.62378,-0.47831 -2.04082,-0.47831 -4.16139,-1.419 v -3.95414 h 0.22307 q 1.80166,1.49874 4.16139,2.31189 2.3597,0.81314 4.43246,0.81314 2.93367,0 4.55996,-1.10013 1.64226,-1.10013 1.64226,-2.93371 0,-1.57844 -0.78126,-2.32781 -0.76529,-0.74937 -2.34378,-1.1639 -1.19579,-0.31888 -2.59887,-0.52616 -1.38712,-0.20734 -2.94963,-0.52617 -3.15692,-0.66963 -4.68755,-2.28 -1.51471,-1.62629 -1.51471,-4.22516 0,-2.98152 2.51918,-4.87887 2.51913,-1.91328 6.39353,-1.91328 2.50321,0 4.59189,0.47831 2.08868,0.47836 3.699,1.17987 v 3.73089 h -0.22307 q -1.35523,-1.14794 -3.57145,-1.89731 -2.20026,-0.76533 -4.51215,-0.76533 -2.5351,0 -4.08169,1.05232 -1.53064,1.05227 -1.53064,2.71045 0,1.48282 0.76535,2.32786 0.76529,0.84503 2.69453,1.29145 1.02043,0.22307 2.90182,0.54208 1.88139,0.31887 3.18881,0.65371 2.64668,0.70156 3.98599,2.12056 1.3393,1.41905 1.3393,3.97007 z"
         id="text43"
         aria-label="CODE. SYSTEMS. FOUNDATIONS " /><path
         d="M 42.364889,481.96993 V 408.72189 H 28.885568 v -11.38954 h 42.214299 v 11.38954 H 57.82953 v 73.24804 z m 56.423161,1.14942 q -8.986216,0 -14.315243,-3.34371 -5.329035,-3.34371 -7.627832,-9.61317 -2.298801,-6.26946 -2.298801,-14.83771 v -31.6607 q 0,-8.56825 2.298801,-14.62871 2.298797,-6.16496 7.627832,-9.40416 5.329027,-3.23926 14.315243,-3.23926 9.19519,0 14.41973,3.23926 5.32903,3.2392 7.62784,9.40416 2.40328,6.06046 2.40328,14.62871 v 31.76521 q 0,8.46374 -2.40328,14.7332 -2.29881,6.16496 -7.62784,9.61317 -5.22454,3.34371 -14.41973,3.34371 z m 0,-11.38951 q 3.86615,0 5.6425,-1.67187 1.88083,-1.67183 2.50778,-4.59758 0.62695,-2.92575 0.62695,-6.37392 v -38.97508 q 0,-3.55271 -0.62695,-6.37396 -0.62695,-2.82125 -2.50778,-4.38862 -1.77635,-1.67184 -5.6425,-1.67184 -3.65718,0 -5.538016,1.67184 -1.880836,1.56737 -2.507778,4.38862 -0.626951,2.82125 -0.626951,6.37396 v 38.97508 q 0,3.44817 0.522452,6.37392 0.626951,2.92575 2.507787,4.59758 1.880835,1.67187 5.642506,1.67187 z m 42.27305,10.24009 -12.01645,-84.63758 h 12.95686 l 7.00089,54.85771 8.77723,-54.64871 h 10.55357 l 8.98621,54.64871 6.89639,-54.85771 h 12.74788 l -11.80745,84.63758 h -12.53891 l -9.40418,-56.73849 -9.29968,56.73849 z m 63.06673,0 v -84.63758 h 10.76255 l 20.58469,48.27479 v -48.27479 h 12.74789 v 84.63758 h -10.2401 l -20.68919,-50.57354 v 50.57354 z m 54.49852,0 v -84.63758 h 35.52687 v 10.86708 h -20.06224 v 24.34633 h 15.77812 v 10.76259 h -15.77812 v 28.00354 h 20.27123 v 10.65804 z m 63.58915,1.14942 q -7.62784,0 -12.74788,-2.92575 -5.12006,-3.03026 -7.73232,-8.77721 -2.61228,-5.747 -2.92575,-14.1063 l 13.27034,-2.61224 q 0.20895,4.91104 1.14939,8.67275 1.04491,3.76167 3.03024,5.85146 2.08982,1.98533 5.43353,1.98533 3.76167,0 5.32902,-2.19429 1.56737,-2.29884 1.56737,-5.747 0,-5.53804 -2.50778,-9.09071 -2.50778,-3.55271 -6.68741,-7.10537 l -10.65807,-9.40417 q -4.49311,-3.86617 -7.20986,-8.56825 -2.61227,-4.80659 -2.61227,-11.8075 0,-10.03108 5.85148,-15.46462 5.85148,-5.43355 15.98709,-5.43355 5.95598,0 9.92663,1.88088 3.97065,1.77633 6.26945,5.01554 2.4033,3.23921 3.55269,7.41883 1.14941,4.07517 1.46288,8.67275 l -13.16585,2.2988 q -0.209,-3.97063 -0.94042,-7.10538 -0.62694,-3.13471 -2.40328,-4.91104 -1.67186,-1.77637 -5.01557,-1.77637 -3.4482,0 -5.32902,2.29878 -1.77636,2.19434 -1.77636,5.53805 0,4.28412 1.77636,7.10537 1.77633,2.71675 5.12004,5.64251 l 10.55357,9.29966 q 5.22455,4.38862 8.88173,10.34462 3.76167,5.85146 3.76167,14.21076 0,6.06045 -2.71677,10.76253 -2.61227,4.70208 -7.41885,7.41883 -4.70208,2.6123 -11.07602,2.6123 z m 26.3904,-1.14942 v -14.31525 h 13.7928 v 14.31525 z m 21.10533,0 v -84.63758 h 19.95775 q 10.34458,0 16.09158,2.82129 5.8515,2.82126 8.25479,8.67271 2.50775,5.8515 2.50775,14.83771 v 30.92928 q 0,9.19522 -2.50775,15.36018 -2.40329,6.06046 -8.15028,9.0907 -5.64251,2.92571 -15.56913,2.92571 z m 15.46462,-10.76254 h 4.70208 q 5.32905,0 7.62784,-1.88083 2.29884,-1.88084 2.82124,-5.43355 0.52246,-3.65716 0.52246,-8.8817 v -32.39217 q 0,-5.12004 -0.73141,-8.25475 -0.73146,-3.13475 -3.03025,-4.59763 -2.29879,-1.46287 -7.41883,-1.46287 h -4.49313 z m 40.28769,10.76254 v -84.63758 h 35.52687 v 10.86708 H 440.9282 v 24.34633 h 15.77809 v 10.76259 H 440.9282 v 28.00354 h 20.27122 v 10.65804 z m 55.2299,0 -17.03201,-84.63758 h 13.6883 l 11.18049,59.87324 10.44908,-59.87324 h 14.00179 l -17.03199,84.63758 z"
         id="text44"
         style="font-size:22.5778px;line-height:0;font-family:Oswald;-inkscape-font-specification:'Oswald, @wght=500';font-variation-settings:'wght' 500;letter-spacing:-0.529167px;word-spacing:0.0264583px;fill:#f8fbfb;fill-opacity:1;stroke-width:1.2245;stroke-linecap:square;stroke-linejoin:round"
         aria-label="TOWNES.DEV" /></g></g></svg>
