<?xml version="1.0" encoding="UTF-8" standalone="no"?>
<!-- Created with Inkscape (http://www.inkscape.org/) -->

<svg
   width="1023.9999"
   height="183.45325"
   viewBox="0 0 270.93333 48.538671"
   version="1.1"
   id="svg1"
   xml:space="preserve"
   sodipodi:docname="townesdev_master.svg"
   inkscape:version="1.4.2 (f4327f4, 2025-05-13)"
   inkscape:export-filename="TownesDev_BrandKit\01_Logos\townesdev_logo_dark_1024.png"
   inkscape:export-xdpi="96"
   inkscape:export-ydpi="96"
   xmlns:inkscape="http://www.inkscape.org/namespaces/inkscape"
   xmlns:sodipodi="http://sodipodi.sourceforge.net/DTD/sodipodi-0.dtd"
   xmlns="http://www.w3.org/2000/svg"
   xmlns:svg="http://www.w3.org/2000/svg"><sodipodi:namedview
     id="namedview1"
     pagecolor="#f5f5f7"
     bordercolor="#ffffff"
     borderopacity="1"
     inkscape:showpageshadow="0"
     inkscape:pageopacity="0"
     inkscape:pagecheckerboard="false"
     inkscape:deskcolor="#505050"
     inkscape:document-units="px"
     inkscape:zoom="0.35355339"
     inkscape:cx="377.59502"
     inkscape:cy="900.85404"
     inkscape:window-width="1578"
     inkscape:window-height="1211"
     inkscape:window-x="966"
     inkscape:window-y="415"
     inkscape:window-maximized="0"
     inkscape:current-layer="layer1"
     showguides="true"><inkscape:page
       x="0"
       y="0"
       width="270.93332"
       height="48.53867"
       id="page2"
       margin="0"
       bleed="0" /></sodipodi:namedview><defs
     id="defs1" /><g
     inkscape:label="Layer 1"
     inkscape:groupmode="layer"
     id="layer1"
     transform="translate(1.5e-6,-111.19733)"><path
       d="M 7.5439585,159.0927 V 118.09803 H -1.5e-6 v -6.37438 H 23.62604 v 6.37438 h -7.426998 v 40.99467 z m 31.5783045,0.64329 q -5.029308,0 -8.0118,-1.87136 -2.982497,-1.87138 -4.269062,-5.3802 -1.286569,-3.50883 -1.286569,-8.30421 v -17.71951 q 0,-4.7954 1.286569,-8.18725 1.286565,-3.45034 4.269062,-5.26322 2.982492,-1.81291 8.0118,-1.81291 5.146264,0 8.070278,1.81291 2.982494,1.81288 4.269067,5.26322 1.345042,3.39185 1.345042,8.18725 v 17.778 q 0,4.73689 -1.345042,8.24572 -1.286573,3.45033 -4.269067,5.3802 -2.924014,1.87136 -8.070278,1.87136 z m 0,-6.37435 q 2.163765,0 3.157933,-0.9357 1.052643,-0.93566 1.403528,-2.57312 0.350884,-1.63745 0.350884,-3.56729 v -21.81314 q 0,-1.98835 -0.350884,-3.56732 -0.350885,-1.57896 -1.403528,-2.45617 -0.994168,-0.93567 -3.157933,-0.93567 -2.046811,0 -3.099457,0.93567 -1.052646,0.87721 -1.403526,2.45617 -0.350885,1.57897 -0.350885,3.56732 v 21.81314 q 0,1.92984 0.2924,3.56729 0.350886,1.63746 1.403531,2.57312 1.052645,0.9357 3.157937,0.9357 z m 23.658923,5.73107 -6.725237,-47.36906 h 7.251555 l 3.918183,30.70218 4.912345,-30.58521 h 5.906507 l 5.029305,30.58521 3.859696,-30.70218 h 7.134591 L 87.45987,159.09271 H 80.442229 L 75.179,127.33792 69.974256,159.09271 Z m 35.296505,0 v -47.36906 h 6.023459 l 11.52062,27.01792 v -27.01792 h 7.1346 v 47.36906 h -5.73107 l -11.57909,-28.30445 v 28.30445 z m 30.501129,0 v -47.36906 h 19.8833 v 6.08197 H 137.2339 v 13.6259 h 8.83053 v 6.02348 h -8.83053 v 15.67272 h 11.34519 v 5.96498 z m 35.58889,0.64329 q -4.26906,0 -7.13459,-1.63745 -2.86554,-1.69595 -4.32754,-4.91233 -1.46202,-3.21643 -1.63746,-7.89486 l 7.427,-1.46199 q 0.11695,2.74855 0.64328,4.85386 0.5848,2.1053 1.69593,3.27488 1.16961,1.11114 3.04098,1.11114 2.10529,0 2.98249,-1.22808 0.87721,-1.28659 0.87721,-3.21642 0,-3.09947 -1.40353,-5.0878 -1.40352,-1.98834 -3.74274,-3.97665 l -5.96499,-5.26323 q -2.51466,-2.16377 -4.03513,-4.79538 -1.46202,-2.69009 -1.46202,-6.60829 0,-5.61409 3.2749,-8.65507 3.27489,-3.041 8.94748,-3.041 3.33338,0 5.55563,1.05267 2.22225,0.99416 3.50882,2.80704 1.34505,1.8129 1.98833,4.1521 0.64329,2.28074 0.81873,4.85386 l -7.36852,1.28657 q -0.11697,-2.22223 -0.52632,-3.97666 -0.35088,-1.75439 -1.34505,-2.74856 -0.93568,-0.99417 -2.80706,-0.99417 -1.92985,0 -2.98249,1.28655 -0.99417,1.22811 -0.99417,3.09948 0,2.39769 0.99417,3.97666 0.99416,1.52047 2.86553,3.15793 l 5.90651,5.20473 q 2.92402,2.45618 4.97083,5.78957 2.10529,3.27488 2.10529,7.95332 0,3.39186 -1.52049,6.02346 -1.46201,2.63161 -4.1521,4.1521 -2.63161,1.46202 -6.19891,1.46202 z m 14.7699,-0.64329 v -8.01181 h 7.7194 v 8.01181 z m 11.81199,0 v -47.36906 h 11.16975 q 5.78954,0 9.00596,1.579 3.2749,1.57897 4.61994,4.85384 1.40352,3.27491 1.40352,8.30422 v 17.31016 q 0,5.14628 -1.40352,8.59662 -1.34504,3.39185 -4.56146,5.08778 -3.15793,1.63744 -8.71355,1.63744 z m 8.65509,-6.02346 h 2.6316 q 2.9825,0 4.26907,-1.05265 1.28658,-1.05265 1.57896,-3.041 0.29241,-2.04679 0.29241,-4.97081 V 125.8759 q 0,-2.86553 -0.40936,-4.61994 -0.40937,-1.75442 -1.69593,-2.57314 -1.28657,-0.81873 -4.15209,-0.81873 h -2.51466 z m 22.54777,6.02346 v -47.36906 h 19.88329 v 6.08197 h -11.2282 v 13.6259 h 8.83051 v 6.02348 h -8.83051 v 15.67272 h 11.34518 v 5.96498 z m 30.91047,0 -9.5323,-47.36906 h 7.66092 l 6.25738,33.50922 5.84803,-33.50922 h 7.83637 l -9.53228,47.36906 z"
       id="text44"
       style="font-size:22.5778px;line-height:0;font-family:Oswald;-inkscape-font-specification:'Oswald, @wght=500';font-variation-settings:'wght' 500;letter-spacing:-0.529167px;word-spacing:0.0264583px;fill:#1a344d;fill-opacity:1;stroke-width:0.685315;stroke-linecap:square;stroke-linejoin:round"
       aria-label="TOWNES.DEV" /></g></svg>
