<?xml version="1.0" encoding="UTF-8" standalone="no"?>
<!-- Created with Inkscape (http://www.inkscape.org/) -->

<svg
   width="512"
   height="512"
   viewBox="0 0 135.46667 135.46667"
   version="1.1"
   id="svg1"
   xml:space="preserve"
   sodipodi:docname="townesdev_icon_light.svg"
   inkscape:version="1.4.2 (f4327f4, 2025-05-13)"
   inkscape:export-filename="TownesDev_BrandKit\01_Logos\townesdev_logo_dark_1024.png"
   inkscape:export-xdpi="96"
   inkscape:export-ydpi="96"
   xmlns:inkscape="http://www.inkscape.org/namespaces/inkscape"
   xmlns:sodipodi="http://sodipodi.sourceforge.net/DTD/sodipodi-0.dtd"
   xmlns="http://www.w3.org/2000/svg"
   xmlns:svg="http://www.w3.org/2000/svg"><sodipodi:namedview
     id="namedview1"
     pagecolor="#f5f5f7"
     bordercolor="#ffffff"
     borderopacity="1"
     inkscape:showpageshadow="0"
     inkscape:pageopacity="0"
     inkscape:pagecheckerboard="false"
     inkscape:deskcolor="#505050"
     inkscape:document-units="px"
     inkscape:zoom="0.35355339"
     inkscape:cx="377.59502"
     inkscape:cy="900.85404"
     inkscape:window-width="1578"
     inkscape:window-height="1211"
     inkscape:window-x="966"
     inkscape:window-y="415"
     inkscape:window-maximized="0"
     inkscape:current-layer="layer1"
     showguides="true"><inkscape:page
       x="0"
       y="0"
       width="135.46667"
       height="135.46667"
       id="page2"
       margin="0"
       bleed="0" /></sodipodi:namedview><defs
     id="defs1" /><g
     inkscape:label="Layer 1"
     inkscape:groupmode="layer"
     id="layer1"><g
       id="g92"
       style="fill:#f8fbfb;fill-opacity:1"
       transform="matrix(0.37382935,0,0,0.37382935,-33.549484,2.4516365e-6)"><path
         id="path19"
         style="fill:#f8fbfb;fill-opacity:1;stroke-width:1.2245"
         d="M 270.89974,4.9894154e-7 C 259.38167,4.9894154e-7 259.50853,7.2298235 259.50853,7.2298235 v 7.6363945 l -58.54408,37.474026 v 11.596881 c 0,2.969625 3.5348,3.675909 3.5348,3.675909 h 14.56489 v 53.736886 h -14.56489 c -5.09084,0 -6.50516,3.96054 -6.50516,3.96054 0,0 -9e-4,8.76739 0.28231,12.16127 0.28277,3.39388 12.30242,7.21071 12.30242,7.21071 l -20.50321,179.45392 h -21.21114 c 0,0 -0.14162,4.38201 0,13.99804 0.14162,9.61604 -21.49574,15.2728 -21.49574,15.2728 v 8.96848 h 123.5311 123.53107 v -8.96848 c 0,0 -21.63712,-5.65676 -21.49574,-15.2728 0.14162,-9.61603 0,-13.99804 0,-13.99804 H 351.7241 L 331.21844,144.68244 c 0,0 12.01955,-3.81683 12.30237,-7.21071 0.28278,-3.39388 0.28463,-12.16127 0.28463,-12.16127 0,0 -1.41433,-3.96054 -6.50516,-3.96054 H 322.73307 V 67.613034 h 14.56721 c 0,0 3.53479,-0.706284 3.53479,-3.675909 V 52.340244 L 282.29099,14.866218 V 7.2298235 c 0,0 0.12681,-7.22982300105846 -11.39116,-7.22982300105846 z M 240.39003,71.795944 h 61.01938 v 18.255093 h -20.56064 v 31.298883 h -19.8981 V 90.051037 h -20.56064 z m 30.63166,131.021546 c 11.00773,0 14.38786,9.43078 14.38786,10.99662 v 36.58193 h -29.08188 v -36.58193 c 0,-2.50024 3.69498,-10.99662 14.69402,-10.99662 z"
         sodipodi:nodetypes="scccscccscccccscccccccccscscccscccsscccccccccssccss" /><g
         id="g91"
         style="fill:#f8fbfb;fill-opacity:1"><path
           style="fill:#f8fbfb;fill-opacity:1;stroke-width:1.2245"
           d="m 188.87989,97.654793 v 11.688987 l -82.63002,22.14065 v -14.78087 z"
           id="path12"
           sodipodi:nodetypes="ccccc" /><path
           style="fill:#f8fbfb;fill-opacity:1;stroke-width:1.2245"
           d="M 188.87989,87.542402 V 75.853424 L 106.24987,53.71277 v 14.780876 z"
           id="path13"
           sodipodi:nodetypes="ccccc" /><path
           style="fill:#f8fbfb;fill-opacity:1;stroke-width:1.2245"
           d="m 352.98671,97.654793 v 11.688987 l 82.63002,22.14065 v -14.78087 z"
           id="path14"
           sodipodi:nodetypes="ccccc" /><path
           style="fill:#f8fbfb;fill-opacity:1;stroke-width:1.2245"
           d="M 352.98671,87.542402 V 75.853424 L 435.61673,53.71277 v 14.780876 z"
           id="path15"
           sodipodi:nodetypes="ccccc" /></g></g></g></svg>
