<?xml version="1.0" encoding="UTF-8" standalone="no"?>
<!-- Created with Inkscape (http://www.inkscape.org/) -->

<svg
   width="2000"
   height="2000"
   viewBox="0 0 529.16666 529.16666"
   version="1.1"
   id="svg1"
   xml:space="preserve"
   sodipodi:docname="townesdev_master.svg"
   inkscape:version="1.4.2 (f4327f4, 2025-05-13)"
   xmlns:inkscape="http://www.inkscape.org/namespaces/inkscape"
   xmlns:sodipodi="http://sodipodi.sourceforge.net/DTD/sodipodi-0.dtd"
   xmlns="http://www.w3.org/2000/svg"
   xmlns:svg="http://www.w3.org/2000/svg"><sodipodi:namedview
     id="namedview1"
     pagecolor="#f5f5f7"
     bordercolor="#ffffff"
     borderopacity="1"
     inkscape:showpageshadow="0"
     inkscape:pageopacity="0"
     inkscape:pagecheckerboard="false"
     inkscape:deskcolor="#505050"
     inkscape:document-units="px"
     inkscape:zoom="0.35355339"
     inkscape:cx="377.59502"
     inkscape:cy="900.85404"
     inkscape:window-width="1578"
     inkscape:window-height="1211"
     inkscape:window-x="966"
     inkscape:window-y="415"
     inkscape:window-maximized="0"
     inkscape:current-layer="layer1"
     showguides="true" /><defs
     id="defs1" /><g
     inkscape:label="Layer 1"
     inkscape:groupmode="layer"
     id="layer1"><g
       id="g87"
       transform="translate(-77.589635,12.347852)"><path
         id="path4"
         style="fill:#ff0000;fill-opacity:1;stroke-width:0.264583"
         d="m 383.52713,10.040017 c -2.48876,0 -2.46135,1.56218 -2.46135,1.56218 v 1.65003 l -12.64987,8.09718 v 2.50579 c 0,0.64166 0.76378,0.79426 0.76378,0.79426 h 3.14709 v 11.61118 h -3.14709 c -1.1,0 -1.4056,0.85576 -1.4056,0.85576 0,0 -1.6e-4,1.89442 0.061,2.62775 0.0611,0.73333 2.65823,1.55804 2.65823,1.55804 l -4.43022,38.775408 h -4.58318 c 0,0 -0.0306,0.94684 0,3.02462 0.0306,2.07778 -4.64468,3.30006 -4.64468,3.30006 v 1.93787 h 26.69191 26.6919 v -1.93787 c 0,0 -4.67523,-1.22228 -4.64468,-3.30006 0.0306,-2.07778 0,-3.02462 0,-3.02462 h -4.58317 l -4.43074,-38.775408 c 0,0 2.59713,-0.82471 2.65824,-1.55804 0.0611,-0.73333 0.0615,-2.62775 0.0615,-2.62775 0,0 -0.3056,-0.85576 -1.4056,-0.85576 h -3.14761 v -11.61118 h 3.14761 c 0,0 0.76378,-0.1526 0.76378,-0.79426 v -2.50579 l -12.64988,-8.09718 v -1.65003 c 0,0 0.0274,-1.56218 -2.46134,-1.56218 z m -7.02852,14.75827 h 7.19595 7.19542 v 6.6306 c 0,0 -0.70103,-1.43764 -2.48925,-1.43764 h -2.5523 v 8.05274 h -2.15387 -2.15439 v -8.05274 h -2.55179 c -1.78822,0 -2.48977,1.43764 -2.48977,1.43764 z m 7.05487,29.06541 c 2.37849,0 3.10885,2.03774 3.10885,2.37608 v 7.90443 h -6.28385 v -7.90443 c 0,-0.54024 0.79839,-2.37608 3.175,-2.37608 z" /><g
         id="g11"
         transform="translate(302.4551,-71.571013)"
         style="fill:#ff0000;fill-opacity:1"><g
           id="g6"
           style="fill:#ff0000;fill-opacity:1"><path
             style="fill:#ff0000;fill-opacity:1;stroke-width:0.264583"
             d="m 63.376285,102.71168 v 2.52569 l -17.854236,4.78403 v -3.19377 z"
             id="path5" /><path
             style="fill:#ff0000;fill-opacity:1;stroke-width:0.264583"
             d="M 63.376285,100.52665 V 98.00096 L 45.522049,93.21693 v 3.19377 z"
             id="path6" /></g><g
           id="g10"
           transform="matrix(-1,0,0,1,162.21187,0)"
           style="fill:#ff0000;fill-opacity:1"><path
             style="fill:#ff0000;fill-opacity:1;stroke-width:0.264583"
             d="m 63.376285,102.71168 v 2.52569 l -17.854236,4.78403 v -3.19377 z"
             id="path7" /><path
             style="fill:#ff0000;fill-opacity:1;stroke-width:0.264583"
             d="M 63.376285,100.52665 V 98.00096 L 45.522049,93.21693 v 3.19377 z"
             id="path10" /></g></g></g><path
       id="path30"
       style="fill:#ff0000;fill-opacity:1;stroke-width:0.264583"
       d="m 239.38236,41.171185 v -2.52569 l 17.85423,-4.78403 v 3.19377 z m 0,2.18503 v 2.52569 l 17.85423,4.78403 v -3.19377 z m -35.4593,-2.18503 v -2.52569 l -17.85423,-4.78403 v 3.19377 z m 0,2.18503 v 2.52569 l -17.85423,4.78403 v -3.19377 z m 18.06063,-20.968349 c -2.48876,0 -2.46135,1.56217 -2.46135,1.56217 v 1.65003 l -12.64988,8.097179 v 2.50579 c 0,0.64166 0.76378,0.79427 0.76378,0.79427 h 3.1471 v 11.61118 h -3.1471 c -1.1,0 -1.4056,0.85576 -1.4056,0.85576 0,0 -1.5e-4,1.89442 0.061,2.62775 0.0611,0.73333 2.65824,1.55804 2.65824,1.55804 l -4.43022,38.775414 h -4.58319 c 0,0 -0.0306,0.946854 0,3.024634 0.0306,2.07778 -4.64468,3.30005 -4.64468,3.30005 V 100.688 h 26.69192 26.69191 v -1.937867 c 0,0 -4.67523,-1.22227 -4.64468,-3.30005 0.0306,-2.07778 0,-3.024634 0,-3.024634 h -4.58318 l -4.43074,-38.775414 c 0,0 2.59712,-0.82471 2.65823,-1.55804 0.0611,-0.73333 0.0615,-2.62775 0.0615,-2.62775 0,0 -0.3056,-0.85576 -1.4056,-0.85576 h -3.14761 v -11.61118 h 3.14761 c 0,0 0.76378,-0.15261 0.76378,-0.79427 v -2.50579 l -12.64989,-8.097179 v -1.65003 c 0,0 0.0274,-1.56217 -2.46133,-1.56217 z m -6.80527,14.506599 h 13.61105 v 11.27219 h -4.5837 v -6.68848 h -4.44365 v 6.68848 h -4.5837 z m 6.83834,29.55893 c 2.37848,0 3.10884,2.037744 3.10884,2.376084 v 7.90443 h -6.28384 v -7.90443 c 0,-0.54024 0.79839,-2.376084 3.175,-2.376084 z" /><g
       id="g89"
       transform="translate(-1.4967093,77.08053)"><rect
         style="font-variation-settings:'wght' 400;fill:#3a506b;fill-opacity:1;stroke-width:0.0441206;stroke-linecap:square;stroke-linejoin:round"
         id="rect30"
         width="31.11828"
         height="36.572575"
         x="175.05107"
         y="463.30801" /><rect
         style="font-variation-settings:'wght' 400;fill:#5c677d;fill-opacity:1;stroke-width:0.0441206;stroke-linecap:square;stroke-linejoin:round"
         id="rect31"
         width="31.11828"
         height="36.572575"
         x="224.53923"
         y="463.30801" /><rect
         style="font-variation-settings:'wght' 400;fill:#f4a261;fill-opacity:1;stroke-width:0.0441206;stroke-linecap:square;stroke-linejoin:round"
         id="rect32"
         width="31.11828"
         height="36.572575"
         x="274.02737"
         y="463.30801" /><rect
         style="font-variation-settings:'wght' 400;fill:#45b4ea;fill-opacity:1;stroke-width:0.0441206;stroke-linecap:square;stroke-linejoin:round"
         id="rect33"
         width="31.11828"
         height="36.572575"
         x="323.51553"
         y="463.30801" /><rect
         style="font-variation-settings:'wght' 400;fill:#f8fbfb;fill-opacity:1;stroke:#1a344d;stroke-width:0.529167;stroke-linecap:square;stroke-linejoin:round;stroke-dasharray:none;stroke-opacity:1"
         id="rect34"
         width="31.11828"
         height="36.572575"
         x="373.26825"
         y="463.30801" /><rect
         style="font-variation-settings:'wght' 400;fill:#1a344d;fill-opacity:1;stroke-width:0.0441206;stroke-linecap:square;stroke-linejoin:round"
         id="rect29"
         width="31.11828"
         height="36.572575"
         x="125.56293"
         y="463.30801" /></g><g
       id="g70"
       inkscape:export-filename="g70.png"
       inkscape:export-xdpi="96"
       inkscape:export-ydpi="96"
       transform="translate(-3.367596,16.463803)"><rect
         style="font-variation-settings:'wght' 400;fill:#1a1a1a;fill-opacity:1;stroke-width:0.278867;stroke-linecap:square;stroke-linejoin:round"
         id="rect69"
         width="319.05206"
         height="321.41833"
         x="105.9528"
         y="105.89219" /><g
         id="g42"
         transform="translate(77.258332,-159.31521)"><rect
           style="font-variation-settings:'wght' 400;fill:#f8fbfb;fill-opacity:1;stroke-width:0.173017;stroke-linecap:square;stroke-linejoin:round"
           id="rect28"
           width="132.29167"
           height="132.29167"
           x="36.66938"
           y="273.95697" /><g
           id="g9"
           transform="translate(3.4430728,194.44644)"
           style="fill:#1a344d;fill-opacity:1"><path
             id="path8"
             style="fill:#1a344d;fill-opacity:1;stroke-width:0.264583"
             d="m 117.10177,106.03022 v -2.52569 l 17.85425,-4.784028 v 3.193768 z m 0,2.18503 v 2.52569 l 17.85425,4.78403 v -3.19377 z m -35.459275,-2.18503 v -2.52569 l -17.85423,-4.784028 v 3.193768 z m 0,2.18503 v 2.52569 l -17.85423,4.78403 v -3.19377 z m 17.69575,-21.100648 c -2.48876,0 -2.46135,1.56219 -2.46135,1.56219 v 1.65003 l -12.64987,8.09717 v 2.505788 c 0,0.64166 0.76377,0.79426 0.76377,0.79426 h 3.14711 v 11.61118 h -3.14711 c -1.1,0 -1.40559,0.85576 -1.40559,0.85576 0,0 -1.6e-4,1.89442 0.061,2.62775 0.0611,0.73332 2.658241,1.55804 2.658241,1.55804 l -4.43023,38.77541 h -4.58318 c 0,0 -0.0306,0.94683 0,3.02461 0.0306,2.07778 -4.64468,3.30006 -4.64468,3.30006 v 1.93786 h 26.691909 26.691885 v -1.93786 c 0,0 -4.67523,-1.22229 -4.64468,-3.30006 0.0306,-2.07778 0,-3.02461 0,-3.02461 h -4.58318 l -4.43074,-38.77541 c 0,0 2.59713,-0.82471 2.65824,-1.55804 0.0611,-0.73333 0.0615,-2.62775 0.0615,-2.62775 0,0 -0.3056,-0.85576 -1.4056,-0.85576 h -3.14761 v -11.61118 h 3.14761 c 0,0 0.76378,-0.1526 0.76378,-0.79426 v -2.505788 l -12.64986,-8.09717 v -1.65003 c 0,0 0.0274,-1.56219 -2.461335,-1.56219 z m -7.02851,14.758278 h 7.19594 7.195395 v 6.63059 c 0,0 -0.70102,-1.43763 -2.48923,-1.43763 h -2.5523 v 8.05274 h -2.153865 -2.15439 v -8.05274 h -2.55179 c -1.78821,0 -2.48976,1.43763 -2.48976,1.43763 z m 7.05486,29.06541 c 2.378485,0 3.108845,2.03774 3.108845,2.37608 v 7.90443 h -6.283845 v -7.90443 c 0,-0.54025 0.79839,-2.37608 3.175,-2.37608 z m -6.13621,-29.00828 h -2.17491" /><g
             id="g8"
             transform="translate(16.404166,13.229167)"
             style="fill:#1a344d;fill-opacity:1"><text
               xml:space="preserve"
               style="font-style:normal;font-variant:normal;font-weight:normal;font-stretch:normal;font-size:7.72241px;line-height:0;font-family:'Fira Code';-inkscape-font-specification:'Fira Code, @wght=400';font-variant-ligatures:normal;font-variant-caps:normal;font-variant-numeric:normal;font-variant-east-asian:normal;font-variation-settings:'wght' 400;text-align:start;letter-spacing:-0.529167px;word-spacing:-0.79375px;writing-mode:lr-tb;direction:ltr;text-anchor:start;opacity:1;fill:#1a344d;fill-opacity:1;stroke:none;stroke-width:0.241325;stroke-linecap:square;stroke-linejoin:round;stroke-dasharray:none"
               x="31.962959"
               y="190.86217"
               id="text2"><tspan
                 sodipodi:role="line"
                 id="tspan2"
                 style="font-style:normal;font-variant:normal;font-weight:normal;font-stretch:normal;font-size:7.05556px;line-height:0;font-family:Sans;-inkscape-font-specification:'Sans, @wght=400';font-variant-ligatures:normal;font-variant-caps:normal;font-variant-numeric:normal;font-variant-east-asian:normal;font-variation-settings:'wght' 400;letter-spacing:-0.529167px;word-spacing:-0.79375px;fill:#1a344d;fill-opacity:1;stroke-width:0.241325;stroke-dasharray:none"
                 x="31.962959"
                 y="190.86217">CODE. SYSTEMS. FOUNDATIONS </tspan></text><text
               xml:space="preserve"
               style="font-style:normal;font-variant:normal;font-weight:normal;font-stretch:normal;font-size:22.5778px;line-height:0;font-family:Oswald;-inkscape-font-specification:'Oswald, @wght=500';font-variant-ligatures:normal;font-variant-caps:normal;font-variant-numeric:normal;font-variant-east-asian:normal;font-variation-settings:'wght' 500;text-align:start;letter-spacing:-0.529167px;word-spacing:0.0264583px;writing-mode:lr-tb;direction:ltr;text-anchor:start;opacity:1;fill:#1a344d;fill-opacity:1;stroke:none;stroke-width:0.264583;stroke-linecap:square;stroke-linejoin:round;stroke-dasharray:none"
               x="28.644127"
               y="178.31477"
               id="text47"><tspan
                 id="tspan47"
                 style="font-style:normal;font-variant:normal;font-weight:normal;font-stretch:normal;font-size:22.5778px;line-height:0;font-family:Oswald;-inkscape-font-specification:'Oswald, @wght=500';font-variant-ligatures:normal;font-variant-caps:normal;font-variant-numeric:normal;font-variant-east-asian:normal;font-variation-settings:'wght' 500;letter-spacing:-0.529167px;word-spacing:0.0264583px;fill:#1a344d;fill-opacity:1;stroke-width:0.264583;stroke-dasharray:none"
                 x="28.644127"
                 y="178.31477"
                 dx="1.73"
                 sodipodi:role="line">TOWNES.DEV</tspan></text></g></g></g><g
         id="g43"
         transform="translate(77.258332,31.524721)"><rect
           style="font-variation-settings:'wght' 400;fill:#1a344d;fill-opacity:1;stroke-width:0.173017;stroke-linecap:square;stroke-linejoin:round"
           id="rect9"
           width="132.29167"
           height="132.29167"
           x="206.8396"
           y="83.117043" /><g
           id="g26"
           transform="translate(173.61329,3.6065112)"
           style="fill:#f8fbfa;fill-opacity:1"><path
             id="path24"
             style="fill:#f8fbfa;fill-opacity:1;stroke-width:0.264583"
             d="m 117.10177,106.03022 v -2.52569 l 17.85425,-4.784028 v 3.193768 z m 0,2.18503 v 2.52569 l 17.85425,4.78403 v -3.19377 z m -35.459275,-2.18503 v -2.52569 l -17.85423,-4.784028 v 3.193768 z m 0,2.18503 v 2.52569 l -17.85423,4.78403 v -3.19377 z m 17.69575,-21.100648 c -2.48876,0 -2.46135,1.56219 -2.46135,1.56219 v 1.65003 l -12.64987,8.09717 v 2.505788 c 0,0.64166 0.76377,0.79426 0.76377,0.79426 h 3.14711 v 11.61118 h -3.14711 c -1.1,0 -1.40559,0.85576 -1.40559,0.85576 0,0 -1.6e-4,1.89442 0.061,2.62775 0.0611,0.73332 2.658241,1.55804 2.658241,1.55804 l -4.43023,38.77541 h -4.58318 c 0,0 -0.0306,0.94683 0,3.02461 0.0306,2.07778 -4.64468,3.30006 -4.64468,3.30006 v 1.93786 h 26.691909 26.691885 v -1.93786 c 0,0 -4.67523,-1.22229 -4.64468,-3.30006 0.0306,-2.07778 0,-3.02461 0,-3.02461 h -4.58318 l -4.43074,-38.77541 c 0,0 2.59713,-0.82471 2.65824,-1.55804 0.0611,-0.73333 0.0615,-2.62775 0.0615,-2.62775 0,0 -0.3056,-0.85576 -1.4056,-0.85576 h -3.14761 v -11.61118 h 3.14761 c 0,0 0.76378,-0.1526 0.76378,-0.79426 v -2.505788 l -12.64986,-8.09717 v -1.65003 c 0,0 0.0274,-1.56219 -2.461335,-1.56219 z m -7.02851,14.758278 h 7.19594 7.195395 v 6.63059 c 0,0 -0.70102,-1.43763 -2.48923,-1.43763 h -2.5523 v 8.05274 h -2.153865 -2.15439 v -8.05274 h -2.55179 c -1.78821,0 -2.48976,1.43763 -2.48976,1.43763 z m 7.05486,29.06541 c 2.378485,0 3.108845,2.03774 3.108845,2.37608 v 7.90443 h -6.283845 v -7.90443 c 0,-0.54025 0.79839,-2.37608 3.175,-2.37608 z m -6.13621,-29.00828 h -2.17491" /><g
             id="g25"
             transform="translate(16.404166,13.229167)"
             style="fill:#f8fbfa;fill-opacity:1"><text
               xml:space="preserve"
               style="font-style:normal;font-variant:normal;font-weight:normal;font-stretch:normal;font-size:7.72241px;line-height:0;font-family:'Fira Code';-inkscape-font-specification:'Fira Code, @wght=400';font-variant-ligatures:normal;font-variant-caps:normal;font-variant-numeric:normal;font-variant-east-asian:normal;font-variation-settings:'wght' 400;text-align:start;letter-spacing:-0.529167px;word-spacing:-0.79375px;writing-mode:lr-tb;direction:ltr;text-anchor:start;opacity:1;fill:#f8fbfa;fill-opacity:1;stroke:none;stroke-width:0.241325;stroke-linecap:square;stroke-linejoin:round;stroke-dasharray:none"
               x="31.962959"
               y="190.86217"
               id="text24"><tspan
                 sodipodi:role="line"
                 id="tspan24"
                 style="font-style:normal;font-variant:normal;font-weight:normal;font-stretch:normal;font-size:7.05556px;line-height:0;font-family:Sans;-inkscape-font-specification:'Sans, @wght=400';font-variant-ligatures:normal;font-variant-caps:normal;font-variant-numeric:normal;font-variant-east-asian:normal;font-variation-settings:'wght' 400;letter-spacing:-0.529167px;word-spacing:-0.79375px;fill:#f8fbfa;fill-opacity:1;stroke-width:0.241325;stroke-dasharray:none"
                 x="31.962959"
                 y="190.86217">CODE. SYSTEMS. FOUNDATIONS </tspan></text><text
               xml:space="preserve"
               style="font-style:normal;font-variant:normal;font-weight:normal;font-stretch:normal;font-size:22.5778px;line-height:0;font-family:Oswald;-inkscape-font-specification:'Oswald, @wght=500';font-variant-ligatures:normal;font-variant-caps:normal;font-variant-numeric:normal;font-variant-east-asian:normal;font-variation-settings:'wght' 500;text-align:start;letter-spacing:-0.529167px;word-spacing:0.0264583px;writing-mode:lr-tb;direction:ltr;text-anchor:start;opacity:1;fill:#f8fbfa;fill-opacity:1;stroke:none;stroke-width:0.264583;stroke-linecap:square;stroke-linejoin:round;stroke-dasharray:none"
               x="28.644127"
               y="178.31477"
               id="text25"><tspan
                 id="tspan25"
                 style="font-style:normal;font-variant:normal;font-weight:normal;font-stretch:normal;font-size:22.5778px;line-height:0;font-family:Oswald;-inkscape-font-specification:'Oswald, @wght=500';font-variant-ligatures:normal;font-variant-caps:normal;font-variant-numeric:normal;font-variant-east-asian:normal;font-variation-settings:'wght' 500;letter-spacing:-0.529167px;word-spacing:0.0264583px;fill:#f8fbfa;fill-opacity:1;stroke-width:0.264583;stroke-dasharray:none"
                 x="28.644127"
                 y="178.31477"
                 dx="1.73"
                 sodipodi:role="line">TOWNES.DEV</tspan></text></g></g></g><g
         id="g69"
         transform="translate(77.258332,23.283333)"><rect
           style="font-variation-settings:'wght' 400;fill:#f8fbfb;fill-opacity:1;stroke-width:0.173017;stroke-linecap:square;stroke-linejoin:round"
           id="rect43"
           width="132.29167"
           height="132.29167"
           x="36.66938"
           y="261.98331" /><g
           id="g47"
           transform="translate(-17.767268,54.0969)"
           inkscape:export-filename="g47.png"
           inkscape:export-xdpi="96"
           inkscape:export-ydpi="96"><path
             id="path19"
             style="fill:#18334c;fill-opacity:1;stroke-width:0.264583"
             d="m 120.57523,215.49045 c -2.48876,0 -2.46135,1.56218 -2.46135,1.56218 v 1.65003 l -12.64988,8.09718 v 2.50579 c 0,0.64166 0.76378,0.79427 0.76378,0.79427 h 3.1471 v 11.61117 h -3.1471 c -1.1,0 -1.4056,0.85577 -1.4056,0.85577 0,0 -2.1e-4,1.89441 0.061,2.62774 0.0611,0.73333 2.65824,1.55805 2.65824,1.55805 l -4.43022,38.77541 h -4.583187 c 0,0 -0.0306,0.94684 0,3.02462 0.0306,2.07778 -4.64468,3.30006 -4.64468,3.30006 v 1.93786 h 26.691917 26.69191 v -1.93786 c 0,0 -4.67523,-1.22228 -4.64468,-3.30006 0.0306,-2.07778 0,-3.02462 0,-3.02462 h -4.58317 l -4.43075,-38.77541 c 0,0 2.59712,-0.82472 2.65823,-1.55805 0.0611,-0.73333 0.0615,-2.62774 0.0615,-2.62774 0,0 -0.3056,-0.85577 -1.4056,-0.85577 h -3.1476 V 230.0999 h 3.1476 c 0,0 0.76378,-0.15261 0.76378,-0.79427 v -2.50579 l -12.64988,-8.09718 v -1.65003 c 0,0 0.0274,-1.56218 -2.46134,-1.56218 z m -6.59237,15.51327 h 13.18473 v 3.94446 h -4.44263 v 6.76289 h -4.29947 v -6.76289 h -4.44263 z m 6.61872,28.31041 c 2.37849,0 3.10885,2.03775 3.10885,2.37609 v 7.90442 h -6.28385 v -7.90442 c 0,-0.54024 0.79839,-2.37609 3.175,-2.37609 z" /><g
             id="g46"
             transform="translate(0.00723471,0.08711965)"><g
               id="g13"
               style="fill:#18334c;fill-opacity:1"
               transform="translate(39.469315,133.79236)"><path
                 style="fill:#18334c;fill-opacity:1;stroke-width:0.264583"
                 d="m 63.376285,102.71168 v 2.52569 l -17.854236,4.78403 v -3.19377 z"
                 id="path12" /><path
                 style="fill:#18334c;fill-opacity:1;stroke-width:0.264583"
                 d="M 63.376285,100.52665 V 98.00096 L 45.522049,93.21693 v 3.19377 z"
                 id="path13" /></g><g
               id="g15"
               transform="matrix(-1,0,0,1,201.68118,133.79236)"
               style="fill:#18334c;fill-opacity:1"><path
                 style="fill:#18334c;fill-opacity:1;stroke-width:0.264583"
                 d="m 63.376285,102.71168 v 2.52569 l -17.854236,4.78403 v -3.19377 z"
                 id="path14" /><path
                 style="fill:#18334c;fill-opacity:1;stroke-width:0.264583"
                 d="M 63.376285,100.52665 V 98.00096 L 45.522049,93.21693 v 3.19377 z"
                 id="path15" /></g></g></g><g
           id="g44"
           transform="translate(19.847239,195.70193)"
           style="fill:#1a344d;fill-opacity:1"><text
             xml:space="preserve"
             style="font-style:normal;font-variant:normal;font-weight:normal;font-stretch:normal;font-size:7.72241px;line-height:0;font-family:'Fira Code';-inkscape-font-specification:'Fira Code, @wght=400';font-variant-ligatures:normal;font-variant-caps:normal;font-variant-numeric:normal;font-variant-east-asian:normal;font-variation-settings:'wght' 400;text-align:start;letter-spacing:-0.529167px;word-spacing:-0.79375px;writing-mode:lr-tb;direction:ltr;text-anchor:start;opacity:1;fill:#1a344d;fill-opacity:1;stroke:none;stroke-width:0.241325;stroke-linecap:square;stroke-linejoin:round;stroke-dasharray:none"
             x="31.962959"
             y="190.86217"
             id="text43"><tspan
               sodipodi:role="line"
               id="tspan43"
               style="font-style:normal;font-variant:normal;font-weight:normal;font-stretch:normal;font-size:7.05556px;line-height:0;font-family:Sans;-inkscape-font-specification:'Sans, @wght=400';font-variant-ligatures:normal;font-variant-caps:normal;font-variant-numeric:normal;font-variant-east-asian:normal;font-variation-settings:'wght' 400;letter-spacing:-0.529167px;word-spacing:-0.79375px;fill:#1a344d;fill-opacity:1;stroke-width:0.241325;stroke-dasharray:none"
               x="31.962959"
               y="190.86217">CODE. SYSTEMS. FOUNDATIONS </tspan></text><text
             xml:space="preserve"
             style="font-style:normal;font-variant:normal;font-weight:normal;font-stretch:normal;font-size:22.5778px;line-height:0;font-family:Oswald;-inkscape-font-specification:'Oswald, @wght=500';font-variant-ligatures:normal;font-variant-caps:normal;font-variant-numeric:normal;font-variant-east-asian:normal;font-variation-settings:'wght' 500;text-align:start;letter-spacing:-0.529167px;word-spacing:0.0264583px;writing-mode:lr-tb;direction:ltr;text-anchor:start;opacity:1;fill:#1a344d;fill-opacity:1;stroke:none;stroke-width:0.264583;stroke-linecap:square;stroke-linejoin:round;stroke-dasharray:none"
             x="28.644127"
             y="178.31477"
             id="text44"><tspan
               id="tspan44"
               style="font-style:normal;font-variant:normal;font-weight:normal;font-stretch:normal;font-size:22.5778px;line-height:0;font-family:Oswald;-inkscape-font-specification:'Oswald, @wght=500';font-variant-ligatures:normal;font-variant-caps:normal;font-variant-numeric:normal;font-variant-east-asian:normal;font-variation-settings:'wght' 500;letter-spacing:-0.529167px;word-spacing:0.0264583px;fill:#1a344d;fill-opacity:1;stroke-width:0.264583;stroke-dasharray:none"
               x="28.644127"
               y="178.31477"
               dx="1.73"
               sodipodi:role="line">TOWNES.DEV</tspan></text></g></g><g
         id="g68"
         transform="translate(77.258332,23.283333)"><rect
           style="font-variation-settings:'wght' 400;fill:#1a344d;fill-opacity:1;stroke-width:0.173017;stroke-linecap:square;stroke-linejoin:round"
           id="rect48"
           width="132.29167"
           height="132.29167"
           x="206.8396"
           y="261.98331" /><g
           id="g49"
           transform="translate(190.01746,195.70193)"
           style="fill:#f8fbfa;fill-opacity:1"><text
             xml:space="preserve"
             style="font-style:normal;font-variant:normal;font-weight:normal;font-stretch:normal;font-size:7.72241px;line-height:0;font-family:'Fira Code';-inkscape-font-specification:'Fira Code, @wght=400';font-variant-ligatures:normal;font-variant-caps:normal;font-variant-numeric:normal;font-variant-east-asian:normal;font-variation-settings:'wght' 400;text-align:start;letter-spacing:-0.529167px;word-spacing:-0.79375px;writing-mode:lr-tb;direction:ltr;text-anchor:start;opacity:1;fill:#f8fbfa;fill-opacity:1;stroke:none;stroke-width:0.241325;stroke-linecap:square;stroke-linejoin:round;stroke-dasharray:none"
             x="31.962959"
             y="190.86217"
             id="text48"><tspan
               sodipodi:role="line"
               id="tspan48"
               style="font-style:normal;font-variant:normal;font-weight:normal;font-stretch:normal;font-size:7.05556px;line-height:0;font-family:Sans;-inkscape-font-specification:'Sans, @wght=400';font-variant-ligatures:normal;font-variant-caps:normal;font-variant-numeric:normal;font-variant-east-asian:normal;font-variation-settings:'wght' 400;letter-spacing:-0.529167px;word-spacing:-0.79375px;fill:#f8fbfa;fill-opacity:1;stroke-width:0.241325;stroke-dasharray:none"
               x="31.962959"
               y="190.86217">CODE. SYSTEMS. FOUNDATIONS </tspan></text><text
             xml:space="preserve"
             style="font-style:normal;font-variant:normal;font-weight:normal;font-stretch:normal;font-size:22.5778px;line-height:0;font-family:Oswald;-inkscape-font-specification:'Oswald, @wght=500';font-variant-ligatures:normal;font-variant-caps:normal;font-variant-numeric:normal;font-variant-east-asian:normal;font-variation-settings:'wght' 500;text-align:start;letter-spacing:-0.529167px;word-spacing:0.0264583px;writing-mode:lr-tb;direction:ltr;text-anchor:start;opacity:1;fill:#f8fbfa;fill-opacity:1;stroke:none;stroke-width:0.264583;stroke-linecap:square;stroke-linejoin:round;stroke-dasharray:none"
             x="28.644127"
             y="178.31477"
             id="text49"><tspan
               id="tspan49"
               style="font-style:normal;font-variant:normal;font-weight:normal;font-stretch:normal;font-size:22.5778px;line-height:0;font-family:Oswald;-inkscape-font-specification:'Oswald, @wght=500';font-variant-ligatures:normal;font-variant-caps:normal;font-variant-numeric:normal;font-variant-east-asian:normal;font-variation-settings:'wght' 500;letter-spacing:-0.529167px;word-spacing:0.0264583px;fill:#f8fbfa;fill-opacity:1;stroke-width:0.264583;stroke-dasharray:none"
               x="28.644127"
               y="178.31477"
               dx="1.73"
               sodipodi:role="line">TOWNES.DEV</tspan></text></g><g
           id="g67"
           transform="translate(152.40295,54.0969)"
           inkscape:export-filename="g47.png"
           inkscape:export-xdpi="96"
           inkscape:export-ydpi="96"
           style="fill:#f8fbfb;fill-opacity:1"><path
             id="path61"
             style="fill:#f8fbfb;fill-opacity:1;stroke-width:0.264583"
             d="m 120.57523,215.49045 c -2.48876,0 -2.46135,1.56218 -2.46135,1.56218 v 1.65003 l -12.64988,8.09718 v 2.50579 c 0,0.64166 0.76378,0.79427 0.76378,0.79427 h 3.1471 v 11.61117 h -3.1471 c -1.1,0 -1.4056,0.85577 -1.4056,0.85577 0,0 -2.1e-4,1.89441 0.061,2.62774 0.0611,0.73333 2.65824,1.55805 2.65824,1.55805 l -4.43022,38.77541 h -4.583187 c 0,0 -0.0306,0.94684 0,3.02462 0.0306,2.07778 -4.64468,3.30006 -4.64468,3.30006 v 1.93786 h 26.691917 26.69191 v -1.93786 c 0,0 -4.67523,-1.22228 -4.64468,-3.30006 0.0306,-2.07778 0,-3.02462 0,-3.02462 h -4.58317 l -4.43075,-38.77541 c 0,0 2.59712,-0.82472 2.65823,-1.55805 0.0611,-0.73333 0.0615,-2.62774 0.0615,-2.62774 0,0 -0.3056,-0.85577 -1.4056,-0.85577 h -3.1476 V 230.0999 h 3.1476 c 0,0 0.76378,-0.15261 0.76378,-0.79427 v -2.50579 l -12.64988,-8.09718 v -1.65003 c 0,0 0.0274,-1.56218 -2.46134,-1.56218 z m -6.59237,15.51327 h 13.18473 v 3.94446 h -4.44263 v 6.76289 h -4.29947 v -6.76289 h -4.44263 z m 6.61872,28.31041 c 2.37849,0 3.10885,2.03775 3.10885,2.37609 v 7.90442 h -6.28385 v -7.90442 c 0,-0.54024 0.79839,-2.37609 3.175,-2.37609 z" /><g
             id="g66"
             transform="translate(0.00723471,0.08711965)"
             style="fill:#f8fbfb;fill-opacity:1"><g
               id="g63"
               style="fill:#f8fbfb;fill-opacity:1"
               transform="translate(39.469315,133.79236)"><path
                 style="fill:#f8fbfb;fill-opacity:1;stroke-width:0.264583"
                 d="m 63.376285,102.71168 v 2.52569 l -17.854236,4.78403 v -3.19377 z"
                 id="path62" /><path
                 style="fill:#f8fbfb;fill-opacity:1;stroke-width:0.264583"
                 d="M 63.376285,100.52665 V 98.00096 L 45.522049,93.21693 v 3.19377 z"
                 id="path63" /></g><g
               id="g65"
               transform="matrix(-1,0,0,1,201.68118,133.79236)"
               style="fill:#f8fbfb;fill-opacity:1"><path
                 style="fill:#f8fbfb;fill-opacity:1;stroke-width:0.264583"
                 d="m 63.376285,102.71168 v 2.52569 l -17.854236,4.78403 v -3.19377 z"
                 id="path64" /><path
                 style="fill:#f8fbfb;fill-opacity:1;stroke-width:0.264583"
                 d="M 63.376285,100.52665 V 98.00096 L 45.522049,93.21693 v 3.19377 z"
                 id="path65" /></g></g></g></g></g><g
       id="g88"
       transform="translate(-15.71545,20.68129)"><path
         id="path11"
         style="fill:#0000ff;fill-opacity:0.668394;stroke-width:0.264583"
         d="m 130.5095,36.804703 v 6.6306 c 0,0 0.70155,-1.43764 2.48977,-1.43764 h 2.55178 v 8.05275 h 2.15439 2.15387 v -8.05274 h 2.5523 c 1.78822,0 2.48926,1.43764 2.48926,1.43764 v -6.63059 h -7.19543 z" /><path
         id="path29"
         style="fill:#00ff00;fill-opacity:0.668394;stroke-width:0.29816"
         d="m 130.86686,60.471983 v 11.27218 h 4.58369 v -6.68849 h 4.44365 v 6.68849 h 4.5837 v -11.27218 z" /><path
         id="path71"
         style="opacity:1;fill:#ff0000;fill-opacity:1;stroke-width:0.264583"
         d="m 161.94141,1.7065786 c -2.48876,0 -2.46134,1.5621785 -2.46134,1.5621785 V 4.918785 l -12.64988,8.09718 v 2.50579 c 0,0.64166 0.76378,0.794267 0.76378,0.794267 h 3.14709 v 11.611177 h -3.14709 c -1.1,0 -1.4056,0.855762 -1.4056,0.855762 0,0 -2.3e-4,1.894417 0.061,2.627747 0.0611,0.73333 2.65823,1.558044 2.65823,1.558044 l -4.43022,38.775411 h -4.58318 c 0,0 -0.0306,0.946841 0,3.024621 0.0306,2.07778 -4.64468,3.300057 -4.64468,3.300057 v 1.937866 h 26.69191 26.69191 v -1.937866 c 0,0 -4.67522,-1.222277 -4.64467,-3.300057 0.0306,-2.07778 0,-3.024621 0,-3.024621 h -4.58319 l -4.43073,-38.775411 c 0,0 2.59712,-0.824714 2.65823,-1.558044 0.0611,-0.73333 0.0615,-2.627747 0.0615,-2.627747 0,0 -0.3056,-0.855762 -1.4056,-0.855762 h -3.14761 V 16.316022 h 3.14761 c 0,0 0.76378,-0.152607 0.76378,-0.794267 v -2.50579 l -12.6499,-8.09718 V 3.2687571 c 0,0 0.0274,-1.5621785 -2.46135,-1.5621785 z" /><path
         style="font-variation-settings:'wght' 400;opacity:1;fill:#ff0000;fill-opacity:1;stroke-width:0.264583;stroke-linecap:square;stroke-linejoin:round"
         d="m 131.11308,26.097374 h 13.18472 v 3.94446 h -4.44262 v 6.762889 h -4.29948 v -6.762889 h -4.44262 z"
         id="path72" /><path
         id="path73"
         style="fill:#0000ff;fill-opacity:0.668394;stroke-width:0.264583"
         d="m 137.70544,50.050413 c -2.37661,0 -3.17499,1.83569 -3.17499,2.37593 v 7.90442 h 6.28385 v -7.90442 c 0,-0.33834 -0.73037,-2.37593 -3.10886,-2.37593 z"
         sodipodi:nodetypes="ssccss" /><path
         style="fill:#00ff00;fill-opacity:1;stroke-width:0.264583"
         d="m 130.86686,59.005335 v 2.52569 l -17.85423,4.78403 v -3.19377 z"
         id="path74" /><path
         style="fill:#00ff00;fill-opacity:1;stroke-width:0.264583"
         d="m 130.86686,50.960522 v -2.52569 l -17.85423,-4.78403 v 3.19377 z"
         id="path75" /><path
         style="fill:#00ff00;fill-opacity:1;stroke-width:0.264583"
         d="m 113.01262,49.586787 v 2.52569 l 17.85424,4.78403 v -3.19377 z"
         id="path76" /><path
         style="fill:#00ff00;fill-opacity:1;stroke-width:0.264583"
         d="m 113.01262,71.820908 v -2.52569 l 17.85424,-4.78403 v 3.19377 z"
         id="path77" /></g><g
       id="g86"
       transform="translate(-91.738075,16.883903)"
       style="fill:#ff0000;fill-opacity:1"><path
         id="path80"
         style="fill:#ff0000;fill-opacity:1;stroke-width:0.264583"
         d="m 482.02093,5.5039647 c -2.48876,0 -2.46135,1.56218 -2.46135,1.56218 v 1.65003 L 466.9097,16.813355 v 2.50579 c 0,0.64166 0.76378,0.79427 0.76378,0.79427 h 3.1471 v 11.61117 h -3.1471 c -1.1,0 -1.4056,0.85577 -1.4056,0.85577 0,0 -2.1e-4,1.89441 0.061,2.62774 0.0611,0.73333 2.65824,1.55805 2.65824,1.55805 l -4.43022,38.77541 h -4.58319 c 0,0 -0.0306,0.94684 0,3.02462 0.0306,2.07778 -4.64468,3.30006 -4.64468,3.30006 v 1.93786 h 26.69192 26.69191 v -1.93786 c 0,0 -4.67523,-1.22228 -4.64468,-3.30006 0.0306,-2.07778 0,-3.02462 0,-3.02462 h -4.58317 l -4.43075,-38.77541 c 0,0 2.59712,-0.82472 2.65823,-1.55805 0.0611,-0.73333 0.0615,-2.62774 0.0615,-2.62774 0,0 -0.3056,-0.85577 -1.4056,-0.85577 h -3.1476 v -11.61117 h 3.1476 c 0,0 0.76378,-0.15261 0.76378,-0.79427 v -2.50579 L 484.48229,8.7161747 v -1.65003 c 0,0 0.0274,-1.56218 -2.46134,-1.56218 z m -6.59237,15.5132703 h 13.18473 v 3.94446 h -4.44263 v 6.76289 h -4.29947 v -6.76289 h -4.44263 z m 6.61872,28.31041 c 2.37849,0 3.10885,2.03775 3.10885,2.37609 v 7.90442 h -6.28385 v -7.90442 c 0,-0.54024 0.79839,-2.37609 3.175,-2.37609 z" /><g
         id="g85"
         transform="translate(361.45293,-209.89937)"
         style="fill:#ff0000;fill-opacity:1"><g
           id="g82"
           style="fill:#ff0000;fill-opacity:1"
           transform="translate(39.469315,133.79236)"><path
             style="fill:#ff0000;fill-opacity:1;stroke-width:0.264583"
             d="m 63.376285,102.71168 v 2.52569 l -17.854236,4.78403 v -3.19377 z"
             id="path81" /><path
             style="fill:#ff0000;fill-opacity:1;stroke-width:0.264583"
             d="M 63.376285,100.52665 V 98.00096 L 45.522049,93.21693 v 3.19377 z"
             id="path82" /></g><g
           id="g84"
           transform="matrix(-1,0,0,1,201.68118,133.79236)"
           style="fill:#ff0000;fill-opacity:1"><path
             style="fill:#ff0000;fill-opacity:1;stroke-width:0.264583"
             d="m 63.376285,102.71168 v 2.52569 l -17.854236,4.78403 v -3.19377 z"
             id="path83" /><path
             style="fill:#ff0000;fill-opacity:1;stroke-width:0.264583"
             d="M 63.376285,100.52665 V 98.00096 L 45.522049,93.21693 v 3.19377 z"
             id="path84" /></g></g></g></g></svg>
