<?xml version="1.0" encoding="UTF-8" standalone="no"?>
<!-- Created with Inkscape (http://www.inkscape.org/) -->

<svg
   width="1829.6523"
   height="2047.9999"
   viewBox="0 0 484.09551 541.86663"
   version="1.1"
   id="svg1"
   xml:space="preserve"
   sodipodi:docname="townesdev_logo_sub_light.svg"
   inkscape:version="1.4.2 (f4327f4, 2025-05-13)"
   inkscape:export-filename="townesdev_logo_dark"
   inkscape:export-xdpi="96"
   inkscape:export-ydpi="96"
   xmlns:inkscape="http://www.inkscape.org/namespaces/inkscape"
   xmlns:sodipodi="http://sodipodi.sourceforge.net/DTD/sodipodi-0.dtd"
   xmlns="http://www.w3.org/2000/svg"
   xmlns:svg="http://www.w3.org/2000/svg"><sodipodi:namedview
     id="namedview1"
     pagecolor="#f5f5f7"
     bordercolor="#ffffff"
     borderopacity="1"
     inkscape:showpageshadow="0"
     inkscape:pageopacity="0"
     inkscape:pagecheckerboard="false"
     inkscape:deskcolor="#505050"
     inkscape:document-units="px"
     inkscape:zoom="0.25"
     inkscape:cx="554"
     inkscape:cy="1210"
     inkscape:window-width="1578"
     inkscape:window-height="1211"
     inkscape:window-x="667"
     inkscape:window-y="382"
     inkscape:window-maximized="0"
     inkscape:current-layer="layer1"
     showguides="true"><inkscape:page
       x="0"
       y="0"
       width="484.09552"
       height="541.86664"
       id="page2"
       margin="0"
       bleed="0" /></sodipodi:namedview><defs
     id="defs1" /><g
     inkscape:label="Layer 1"
     inkscape:groupmode="layer"
     id="layer1"
     transform="translate(-28.885569)"><g
       id="g1"
       style="fill:#f8fbfb;fill-opacity:1"><g
         id="g92"
         transform="matrix(1.1752325,0,0,1.1752325,-47.47629,4.2333332)"
         style="fill:#f8fbfb;fill-opacity:1"><path
           id="path19"
           style="fill:#f8fbfb;fill-opacity:1;stroke-width:1.2245"
           d="M 270.89974,4.9894154e-7 C 259.38167,4.9894154e-7 259.50853,7.2298235 259.50853,7.2298235 v 7.6363945 l -58.54408,37.474026 v 11.596881 c 0,2.969625 3.5348,3.675909 3.5348,3.675909 h 14.56489 v 53.736886 h -14.56489 c -5.09084,0 -6.50516,3.96054 -6.50516,3.96054 0,0 -9e-4,8.76739 0.28231,12.16127 0.28277,3.39388 12.30242,7.21071 12.30242,7.21071 l -20.50321,179.45392 h -21.21114 c 0,0 -0.14162,4.38201 0,13.99804 0.14162,9.61604 -21.49574,15.2728 -21.49574,15.2728 v 8.96848 h 123.5311 123.53107 v -8.96848 c 0,0 -21.63712,-5.65676 -21.49574,-15.2728 0.14162,-9.61603 0,-13.99804 0,-13.99804 H 351.7241 L 331.21844,144.68244 c 0,0 12.01955,-3.81683 12.30237,-7.21071 0.28278,-3.39388 0.28463,-12.16127 0.28463,-12.16127 0,0 -1.41433,-3.96054 -6.50516,-3.96054 H 322.73307 V 67.613034 h 14.56721 c 0,0 3.53479,-0.706284 3.53479,-3.675909 V 52.340244 L 282.29099,14.866218 V 7.2298235 c 0,0 0.12681,-7.22982300105846 -11.39116,-7.22982300105846 z M 240.39003,71.795944 h 61.01938 v 18.255093 h -20.56064 v 31.298883 h -19.8981 V 90.051037 h -20.56064 z m 30.63166,131.021546 c 11.00773,0 14.38786,9.43078 14.38786,10.99662 v 36.58193 h -29.08188 v -36.58193 c 0,-2.50024 3.69498,-10.99662 14.69402,-10.99662 z"
           sodipodi:nodetypes="scccscccscccccscccccccccscscccscccsscccccccccssccss" /><g
           id="g91"
           style="fill:#f8fbfb;fill-opacity:1"><path
             style="fill:#f8fbfb;fill-opacity:1;stroke-width:1.2245"
             d="m 188.87989,97.654793 v 11.688987 l -82.63002,22.14065 v -14.78087 z"
             id="path12"
             sodipodi:nodetypes="ccccc" /><path
             style="fill:#f8fbfb;fill-opacity:1;stroke-width:1.2245"
             d="M 188.87989,87.542402 V 75.853424 L 106.24987,53.71277 v 14.780876 z"
             id="path13"
             sodipodi:nodetypes="ccccc" /><path
             style="fill:#f8fbfb;fill-opacity:1;stroke-width:1.2245"
             d="m 352.98671,97.654793 v 11.688987 l 82.63002,22.14065 v -14.78087 z"
             id="path14"
             sodipodi:nodetypes="ccccc" /><path
             style="fill:#f8fbfb;fill-opacity:1;stroke-width:1.2245"
             d="M 352.98671,87.542402 V 75.853424 L 435.61673,53.71277 v 14.780876 z"
             id="path15"
             sodipodi:nodetypes="ccccc" /></g></g><path
         d="M 42.36489,540.71722 V 467.46918 H 28.885569 v -11.38954 h 42.214299 v 11.38954 H 57.829531 v 73.24804 z m 56.423161,1.14942 q -8.986216,0 -14.315243,-3.34371 -5.329035,-3.34371 -7.627832,-9.61317 -2.298801,-6.26946 -2.298801,-14.83771 v -31.6607 q 0,-8.56825 2.298801,-14.62871 2.298797,-6.16496 7.627832,-9.40416 5.329027,-3.23926 14.315243,-3.23926 9.195189,0 14.419729,3.23926 5.32903,3.2392 7.62784,9.40416 2.40328,6.06046 2.40328,14.62871 v 31.76521 q 0,8.46374 -2.40328,14.7332 -2.29881,6.16496 -7.62784,9.61317 -5.22454,3.34371 -14.419729,3.34371 z m 0,-11.38951 q 3.866149,0 5.642499,-1.67187 1.88083,-1.67183 2.50778,-4.59758 0.62695,-2.92575 0.62695,-6.37392 v -38.97508 q 0,-3.55271 -0.62695,-6.37396 -0.62695,-2.82125 -2.50778,-4.38862 -1.77635,-1.67184 -5.642499,-1.67184 -3.65718,0 -5.538016,1.67184 -1.880836,1.56737 -2.507778,4.38862 -0.626951,2.82125 -0.626951,6.37396 v 38.97508 q 0,3.44817 0.522452,6.37392 0.626951,2.92575 2.507787,4.59758 1.880835,1.67187 5.642506,1.67187 z m 42.273049,10.24009 -12.01645,-84.63758 h 12.95686 l 7.00089,54.85771 8.77723,-54.64871 h 10.55357 l 8.98621,54.64871 6.89639,-54.85771 h 12.74788 l -11.80745,84.63758 h -12.53891 l -9.40418,-56.73849 -9.29968,56.73849 z m 63.06673,0 v -84.63758 h 10.76255 l 20.58469,48.27479 v -48.27479 h 12.74789 v 84.63758 h -10.2401 l -20.68919,-50.57354 v 50.57354 z m 54.49852,0 v -84.63758 h 35.52687 v 10.86708 h -20.06224 v 24.34633 h 15.77812 v 10.76259 h -15.77812 v 28.00354 h 20.27123 v 10.65804 z m 63.58915,1.14942 q -7.62784,0 -12.74788,-2.92575 -5.12006,-3.03026 -7.73232,-8.77721 -2.61228,-5.747 -2.92575,-14.1063 l 13.27034,-2.61224 q 0.20895,4.91104 1.14939,8.67275 1.04491,3.76167 3.03024,5.85146 2.08982,1.98533 5.43353,1.98533 3.76167,0 5.32902,-2.19429 1.56737,-2.29884 1.56737,-5.747 0,-5.53804 -2.50778,-9.09071 -2.50778,-3.55271 -6.68741,-7.10537 l -10.65807,-9.40417 q -4.49311,-3.86617 -7.20986,-8.56825 -2.61227,-4.80659 -2.61227,-11.8075 0,-10.03108 5.85148,-15.46462 5.85148,-5.43355 15.98709,-5.43355 5.95598,0 9.92663,1.88088 3.97065,1.77633 6.26945,5.01554 2.4033,3.23921 3.55269,7.41883 1.14941,4.07517 1.46288,8.67275 l -13.16585,2.2988 q -0.209,-3.97063 -0.94042,-7.10538 -0.62694,-3.13471 -2.40328,-4.91104 -1.67186,-1.77637 -5.01557,-1.77637 -3.4482,0 -5.32902,2.29878 -1.77636,2.19434 -1.77636,5.53805 0,4.28412 1.77636,7.10537 1.77633,2.71675 5.12004,5.64251 l 10.55357,9.29966 q 5.22455,4.38862 8.88173,10.34462 3.76167,5.85146 3.76167,14.21076 0,6.06045 -2.71677,10.76253 -2.61227,4.70208 -7.41885,7.41883 -4.70208,2.6123 -11.07602,2.6123 z m 26.3904,-1.14942 v -14.31525 h 13.7928 v 14.31525 z m 21.10533,0 v -84.63758 h 19.95775 q 10.34458,0 16.09158,2.82129 5.8515,2.82126 8.25479,8.67271 2.50775,5.8515 2.50775,14.83771 v 30.92928 q 0,9.19522 -2.50775,15.36018 -2.40329,6.06046 -8.15028,9.0907 -5.64251,2.92571 -15.56913,2.92571 z m 15.46462,-10.76254 h 4.70208 q 5.32905,0 7.62784,-1.88083 2.29884,-1.88084 2.82124,-5.43355 0.52246,-3.65716 0.52246,-8.8817 v -32.39217 q 0,-5.12004 -0.73141,-8.25475 -0.73146,-3.13475 -3.03025,-4.59763 -2.29879,-1.46287 -7.41883,-1.46287 h -4.49313 z m 40.28769,10.76254 v -84.63758 h 35.52687 v 10.86708 H 440.9282 v 24.34633 h 15.77809 v 10.76259 H 440.9282 v 28.00354 h 20.27122 v 10.65804 z m 55.2299,0 -17.03201,-84.63758 h 13.6883 l 11.18049,59.87324 10.44908,-59.87324 h 14.00179 l -17.03199,84.63758 z"
         id="text44"
         style="font-size:22.5778px;line-height:0;font-family:Oswald;-inkscape-font-specification:'Oswald, @wght=500';font-variation-settings:'wght' 500;letter-spacing:-0.529167px;word-spacing:0.0264583px;fill:#f8fbfb;fill-opacity:1;stroke-width:1.2245;stroke-linecap:square;stroke-linejoin:round"
         aria-label="TOWNES.DEV" /></g></g></svg>
